<svg width="84" height="86" viewBox="0 0 84 86" fill="none" xmlns="http://www.w3.org/2000/svg">
<path d="M25.3262 5.53558C8.96229 31.3605 19.195 73.1369 50.0749 82.6104" stroke="#C0C0C0" stroke-width="4"/>
<path d="M25.3262 6.03561C57.422 8.88846 73.7232 46.5114 66.3385 74.8321" stroke="#C0C0C0" stroke-width="4"/>
<path d="M24.9727 5.53558L58.9138 79.7818" stroke="#C0C0C0" stroke-width="4"/>
<path d="M7.29501 22.5061C24.0419 31.3592 45.0299 19.6817 51.8427 3.41443" stroke="#C0C0C0" stroke-width="4"/>
<path d="M2.69879 40.5374C27.301 48.4296 57.1481 36.1293 67.7526 12.2531" stroke="#C0C0C0" stroke-width="4"/>
<path d="M5.8808 60.3364C33.538 67.1655 67.3878 54.7991 78.3592 27.1024" stroke="#C0C0C0" stroke-width="4"/>
<path d="M81.5296 42.3443C81.6632 53.1538 77.6173 63.5737 70.2791 71.3198C62.9409 79.0658 52.9091 83.5058 42.3832 83.6664C31.8572 83.8269 21.696 79.695 14.1272 72.1763C6.55842 64.6576 2.19975 54.3659 2.00676 43.5573C1.81377 32.7488 5.8022 22.3055 13.0976 14.5169C20.3931 6.72841 30.4002 2.23027 40.9251 2.00863C51.45 1.787 61.6338 5.85997 69.2437 13.3346C76.8537 20.8093 81.2689 31.0756 81.5214 41.8829" stroke="#C0C0C0" stroke-width="4"/>
<path d="M16.8409 74.8321C41.4194 83.4847 72.2801 70.6809 81.5412 45.8406" stroke="#C0C0C0" stroke-width="4"/>
<path d="M81.0934 48.8629C81.465 46.3167 81.6014 43.7403 81.5007 41.1681" stroke="#C0C0C0" stroke-width="4"/>
</svg>
